# xmcd
#
# Track frame offsets:
#	150
#	16471
#	31005
#	43789
#	55398
#	68261
#	80917
#	100815
#	116997
#	129840
#	144088
#	157445
#	171428
#	185169
#	198459
#	213104
#	227922
#	242994
#	258808
#	270302
#
# Disc length: 3814 seconds
#
# Revision: 2
# Processed by: cddbd v1.4PL0 Copyright (c) Steve Scherf et al.
# Submitted via: CDmax 2.0
#
DISCID=1e0ee414
DTITLE=Various Artist - The Best of Boogie Woogie - CD 1
DYEAR=2003
DGENRE=Blues
TTITLE0=Boogie woogie stomp - Albert Ammons
TTITLE1=Pinetops boogie woogie - Pinetop Smith
TTITLE2=Roll 'em Pete - Pete Johnson and Joe Turner
TTITLE3=Cow cow blues - Cow Cow Davenport
TTITLE4=Honky tonk train blues - Meade Lux Lewis
TTITLE5=Streamline train - Clarence Lofton and Red Nelson
TTITLE6=Yancey special - Jimmy Yancey
TTITLE7=Sugar blues - Clarence Williams
TTITLE8=Texas stomp - Big Maceo
TTITLE9=Boogie woogie dance - Tampa Red
TTITLE10=Head rag hop - Romeo Nelson and Tampa Red and Frankie Jaxon
TTITLE11=Boogie woogie blues - Jimmy Blythe
TTITLE12=Let 'em jump - Pete Johnson
TTITLE13=Jookit jookit - Walter Roland
TTITLE14=St Louis stomp - Speckled Red
TTITLE15=Fives - Turner Parrish
TTITLE16=Bass goin' crazy - Albert Ammons
TTITLE17=Indiana avenue stomp - Montana Taylor
TTITLE18=Parrish street jive - Little Brother Montgomery
TTITLE19=Harlem chocolate babies - James P. Johnson
EXTD=
EXTT0=(Smith)
EXTT1=(Smith)
EXTT2=(Johnson/Turner)
EXTT3=(Davenport)
EXTT4=(Lewis)
EXTT5=(Nelson)
EXTT6=(Yancey)
EXTT7=(Williams/Fletcher)
EXTT8=(Merriweather)
EXTT9=(Whittaker)
EXTT10=(Nelson)
EXTT11=(Blythe)
EXTT12=(Johnson)
EXTT13=(Roland)
EXTT14=(Perryman)
EXTT15=(Parrish)
EXTT16=(Ammons)
EXTT17=(Taylor)
EXTT18=(Montgomery)
EXTT19=(Johnson)
PLAYORDER=
